<svg width="364" height="148" viewBox="0 0 364 148" fill="none" xmlns="http://www.w3.org/2000/svg">
<path d="M69.2676 142.663L44.8081 88.061C42.7527 83.5451 40.6973 79.0291 38.6418 74.5132C36.7235 69.8604 34.8736 65.4813 33.0922 61.3759C31.3109 57.1336 29.735 53.3019 28.3648 49.8807C27.1315 46.5964 26.1723 43.9963 25.4872 42.0804C25.7612 44.6805 25.9668 47.6227 26.1038 50.9071C26.2408 54.3282 26.3779 57.8178 26.5149 61.3759C26.6519 64.9339 26.7204 68.4919 26.7204 72.0499C26.8575 75.4711 26.926 78.687 26.926 81.6976L27.7481 142.663H0V0H31.859L59.196 57.0652C62.7587 64.7286 65.8419 72.1184 68.4454 79.2344C71.186 86.2136 73.3099 92.3033 74.8172 97.5035C74.5431 94.7665 74.2691 91.6875 73.995 88.2663C73.721 84.7083 73.4469 81.1503 73.1729 77.5922C73.0358 73.8974 72.8988 70.4078 72.7618 67.1234C72.6248 63.7023 72.5562 60.7601 72.5562 58.2968L71.9396 0H99.2767V142.663H69.2676Z" fill="context-fill #333333"/>
<path d="M191.115 148C187.964 146.632 185.018 144.853 182.277 142.663C179.673 140.473 177.687 138.01 176.316 135.273C175.22 136.368 174.124 137.394 173.028 138.352C172.068 139.31 171.041 140.131 169.944 140.816C164.6 144.647 157.543 146.563 148.774 146.563C136.989 146.563 128.014 143.758 121.848 138.147C115.681 132.399 112.598 124.257 112.598 113.72C112.598 101.267 116.778 92.1664 125.136 86.4189C133.632 80.5344 146.307 77.5922 163.162 77.5922H166.245C167.204 77.5922 168.232 77.6607 169.328 77.7975V73.4868C169.328 67.6024 168.506 63.5654 166.861 61.3759C165.354 59.0495 162.065 57.8863 156.995 57.8863C152.61 57.8863 147.883 58.9126 142.813 60.9653C137.743 63.018 132.33 65.9602 126.575 69.792L114.859 50.086C117.6 48.307 120.203 46.8017 122.67 45.57C125.136 44.3384 128.22 42.97 131.919 41.4646C137.126 39.2751 141.991 37.7013 146.513 36.7434C151.172 35.7855 155.899 35.3065 160.695 35.3065C169.602 35.3065 176.933 36.8803 182.688 40.0277C188.58 43.1752 192.554 47.6912 194.609 53.5756C195.021 54.6704 195.295 55.7651 195.432 56.8599C195.706 57.8178 195.911 58.981 196.048 60.3495C196.322 61.718 196.459 63.3601 196.459 65.276V72.4605L195.843 107.767C195.843 110.641 195.911 113.172 196.048 115.362C196.185 117.415 196.596 119.331 197.282 121.11C197.967 122.889 198.926 124.599 200.159 126.241C201.529 127.747 203.379 129.389 205.709 131.168L191.115 148ZM167.684 96.6824C158.092 96.6824 151.377 97.7772 147.54 99.9667C143.841 102.156 141.991 106.399 141.991 112.693C141.991 116.799 143.087 120.152 145.279 122.752C147.609 125.215 150.555 126.447 154.118 126.447C156.721 126.447 159.256 125.831 161.723 124.599C164.189 123.368 166.45 121.589 168.506 119.262L168.917 96.6824H167.684Z" fill="context-fill #333333"/>
<path d="M269.316 61.5811C266.712 60.2127 264.04 59.5284 261.3 59.5284C255.133 59.5284 249.515 62.4706 244.445 68.3551V142.663H216.903V72.4605C216.903 65.3444 216.492 59.1863 215.669 53.9861C214.984 48.7859 214.094 44.6805 212.997 41.6699L237.662 35.1012C240.129 39.4804 241.568 44.4753 241.979 50.086C244.993 46.1174 248.556 42.6278 252.667 39.6172C256.778 36.6066 261.437 35.1012 266.644 35.1012C268.699 35.1012 270.344 35.2381 271.577 35.5118C272.947 35.7855 274.728 36.4013 276.921 37.3592L269.316 61.5811Z" fill="context-fill #333333"/>
<path d="M349.407 148C346.255 146.632 343.309 144.853 340.568 142.663C337.965 140.473 335.978 138.01 334.608 135.273C333.511 136.368 332.415 137.394 331.319 138.352C330.36 139.31 329.332 140.131 328.236 140.816C322.892 144.647 315.835 146.563 307.065 146.563C295.281 146.563 286.305 143.758 280.139 138.147C273.973 132.399 270.89 124.257 270.89 113.72C270.89 101.267 275.069 92.1664 283.428 86.4189C291.923 80.5344 304.598 77.5922 321.453 77.5922H324.536C325.495 77.5922 326.523 77.6607 327.619 77.7975V73.4868C327.619 67.6024 326.797 63.5654 325.153 61.3759C323.645 59.0495 320.357 57.8863 315.287 57.8863C310.902 57.8863 306.174 58.9126 301.104 60.9653C296.034 63.018 290.622 65.9602 284.866 69.792L273.151 50.086C275.891 48.307 278.495 46.8017 280.961 45.57C283.428 44.3384 286.511 42.97 290.21 41.4646C295.418 39.2751 300.282 37.7013 304.804 36.7434C309.463 35.7855 314.19 35.3065 318.986 35.3065C327.893 35.3065 335.224 36.8803 340.979 40.0277C346.872 43.1752 350.845 47.6912 352.901 53.5756C353.312 54.6704 353.586 55.7651 353.723 56.8599C353.997 57.8178 354.203 58.981 354.34 60.3495C354.614 61.718 354.751 63.3601 354.751 65.276V72.4605L354.134 107.767C354.134 110.641 354.203 113.172 354.34 115.362C354.477 117.415 354.888 119.331 355.573 121.11C356.258 122.889 357.217 124.599 358.45 126.241C359.821 127.747 361.671 129.389 364 131.168L349.407 148ZM325.975 96.6824C316.383 96.6824 309.668 97.7772 305.832 99.9667C302.132 102.156 300.282 106.399 300.282 112.693C300.282 116.799 301.378 120.152 303.571 122.752C305.9 125.215 308.846 126.447 312.409 126.447C315.013 126.447 317.548 125.831 320.014 124.599C322.481 123.368 324.741 121.589 326.797 119.262L327.208 96.6824H325.975Z" fill="context-fill #333333"/>
</svg>
